<mxfile host="app.diagrams.net" modified="2023-09-21T15:11:38.333Z" agent="Mozilla/5.0 (X11; Ubuntu; Linux x86_64; rv:109.0) Gecko/20100101 Firefox/117.0" etag="J86bsxKFRhu7natGS1ou" version="21.8.0" type="github">
  <diagram id="HLmwvm8MezSdkVYSD1in" name="Page-1">
    <mxGraphModel dx="2002" dy="1155" grid="1" gridSize="10" guides="1" tooltips="1" connect="1" arrows="1" fold="1" page="1" pageScale="1" pageWidth="827" pageHeight="1169" math="0" shadow="0">
      <root>
        <mxCell id="0" />
        <mxCell id="1" parent="0" />
        <mxCell id="GNIsgfz2RBcbvhtRr2Xp-2" value="event" style="swimlane;fontStyle=0;childLayout=stackLayout;horizontal=1;startSize=26;fillColor=none;horizontalStack=0;resizeParent=1;resizeParentMax=0;resizeLast=0;collapsible=1;marginBottom=0;" parent="1" vertex="1">
          <mxGeometry x="344" y="150" width="140" height="104" as="geometry" />
        </mxCell>
        <mxCell id="GNIsgfz2RBcbvhtRr2Xp-3" value="+ field: type" style="text;strokeColor=none;fillColor=none;align=left;verticalAlign=top;spacingLeft=4;spacingRight=4;overflow=hidden;rotatable=0;points=[[0,0.5],[1,0.5]];portConstraint=eastwest;" parent="GNIsgfz2RBcbvhtRr2Xp-2" vertex="1">
          <mxGeometry y="26" width="140" height="26" as="geometry" />
        </mxCell>
        <mxCell id="GNIsgfz2RBcbvhtRr2Xp-4" value="+ field: type" style="text;strokeColor=none;fillColor=none;align=left;verticalAlign=top;spacingLeft=4;spacingRight=4;overflow=hidden;rotatable=0;points=[[0,0.5],[1,0.5]];portConstraint=eastwest;" parent="GNIsgfz2RBcbvhtRr2Xp-2" vertex="1">
          <mxGeometry y="52" width="140" height="26" as="geometry" />
        </mxCell>
        <mxCell id="GNIsgfz2RBcbvhtRr2Xp-5" value="+ field: type" style="text;strokeColor=none;fillColor=none;align=left;verticalAlign=top;spacingLeft=4;spacingRight=4;overflow=hidden;rotatable=0;points=[[0,0.5],[1,0.5]];portConstraint=eastwest;" parent="GNIsgfz2RBcbvhtRr2Xp-2" vertex="1">
          <mxGeometry y="78" width="140" height="26" as="geometry" />
        </mxCell>
        <mxCell id="GNIsgfz2RBcbvhtRr2Xp-19" style="edgeStyle=orthogonalEdgeStyle;rounded=0;orthogonalLoop=1;jettySize=auto;html=1;exitX=0.5;exitY=0;exitDx=0;exitDy=0;entryX=0;entryY=0.5;entryDx=0;entryDy=0;" parent="1" source="GNIsgfz2RBcbvhtRr2Xp-6" target="GNIsgfz2RBcbvhtRr2Xp-4" edge="1">
          <mxGeometry relative="1" as="geometry" />
        </mxCell>
        <mxCell id="GNIsgfz2RBcbvhtRr2Xp-6" value="Person" style="swimlane;fontStyle=0;childLayout=stackLayout;horizontal=1;startSize=26;fillColor=none;horizontalStack=0;resizeParent=1;resizeParentMax=0;resizeLast=0;collapsible=1;marginBottom=0;" parent="1" vertex="1">
          <mxGeometry x="140" y="320" width="140" height="104" as="geometry" />
        </mxCell>
        <mxCell id="GNIsgfz2RBcbvhtRr2Xp-7" value="+ field: type" style="text;strokeColor=none;fillColor=none;align=left;verticalAlign=top;spacingLeft=4;spacingRight=4;overflow=hidden;rotatable=0;points=[[0,0.5],[1,0.5]];portConstraint=eastwest;" parent="GNIsgfz2RBcbvhtRr2Xp-6" vertex="1">
          <mxGeometry y="26" width="140" height="26" as="geometry" />
        </mxCell>
        <mxCell id="GNIsgfz2RBcbvhtRr2Xp-8" value="+ field: type" style="text;strokeColor=none;fillColor=none;align=left;verticalAlign=top;spacingLeft=4;spacingRight=4;overflow=hidden;rotatable=0;points=[[0,0.5],[1,0.5]];portConstraint=eastwest;" parent="GNIsgfz2RBcbvhtRr2Xp-6" vertex="1">
          <mxGeometry y="52" width="140" height="26" as="geometry" />
        </mxCell>
        <mxCell id="GNIsgfz2RBcbvhtRr2Xp-9" value="+ field: type" style="text;strokeColor=none;fillColor=none;align=left;verticalAlign=top;spacingLeft=4;spacingRight=4;overflow=hidden;rotatable=0;points=[[0,0.5],[1,0.5]];portConstraint=eastwest;" parent="GNIsgfz2RBcbvhtRr2Xp-6" vertex="1">
          <mxGeometry y="78" width="140" height="26" as="geometry" />
        </mxCell>
        <mxCell id="GNIsgfz2RBcbvhtRr2Xp-20" style="edgeStyle=orthogonalEdgeStyle;rounded=0;orthogonalLoop=1;jettySize=auto;html=1;exitX=0.5;exitY=0;exitDx=0;exitDy=0;" parent="1" source="GNIsgfz2RBcbvhtRr2Xp-10" edge="1">
          <mxGeometry relative="1" as="geometry">
            <mxPoint x="414" y="258" as="targetPoint" />
          </mxGeometry>
        </mxCell>
        <mxCell id="GNIsgfz2RBcbvhtRr2Xp-10" value="Organization" style="swimlane;fontStyle=0;childLayout=stackLayout;horizontal=1;startSize=26;fillColor=none;horizontalStack=0;resizeParent=1;resizeParentMax=0;resizeLast=0;collapsible=1;marginBottom=0;" parent="1" vertex="1">
          <mxGeometry x="520" y="320" width="140" height="104" as="geometry" />
        </mxCell>
        <mxCell id="GNIsgfz2RBcbvhtRr2Xp-11" value="+ field: type" style="text;strokeColor=none;fillColor=none;align=left;verticalAlign=top;spacingLeft=4;spacingRight=4;overflow=hidden;rotatable=0;points=[[0,0.5],[1,0.5]];portConstraint=eastwest;" parent="GNIsgfz2RBcbvhtRr2Xp-10" vertex="1">
          <mxGeometry y="26" width="140" height="26" as="geometry" />
        </mxCell>
        <mxCell id="GNIsgfz2RBcbvhtRr2Xp-12" value="+ field: type" style="text;strokeColor=none;fillColor=none;align=left;verticalAlign=top;spacingLeft=4;spacingRight=4;overflow=hidden;rotatable=0;points=[[0,0.5],[1,0.5]];portConstraint=eastwest;" parent="GNIsgfz2RBcbvhtRr2Xp-10" vertex="1">
          <mxGeometry y="52" width="140" height="26" as="geometry" />
        </mxCell>
        <mxCell id="GNIsgfz2RBcbvhtRr2Xp-13" value="+ field: type" style="text;strokeColor=none;fillColor=none;align=left;verticalAlign=top;spacingLeft=4;spacingRight=4;overflow=hidden;rotatable=0;points=[[0,0.5],[1,0.5]];portConstraint=eastwest;" parent="GNIsgfz2RBcbvhtRr2Xp-10" vertex="1">
          <mxGeometry y="78" width="140" height="26" as="geometry" />
        </mxCell>
        <mxCell id="GNIsgfz2RBcbvhtRr2Xp-21" style="edgeStyle=orthogonalEdgeStyle;rounded=0;orthogonalLoop=1;jettySize=auto;html=1;entryX=1;entryY=0.5;entryDx=0;entryDy=0;" parent="1" source="GNIsgfz2RBcbvhtRr2Xp-14" target="GNIsgfz2RBcbvhtRr2Xp-4" edge="1">
          <mxGeometry relative="1" as="geometry" />
        </mxCell>
        <mxCell id="GNIsgfz2RBcbvhtRr2Xp-14" value="TypeEvent" style="swimlane;fontStyle=0;childLayout=stackLayout;horizontal=1;startSize=26;fillColor=none;horizontalStack=0;resizeParent=1;resizeParentMax=0;resizeLast=0;collapsible=1;marginBottom=0;" parent="1" vertex="1">
          <mxGeometry x="610" y="100" width="140" height="104" as="geometry" />
        </mxCell>
        <mxCell id="GNIsgfz2RBcbvhtRr2Xp-15" value="+ field: type" style="text;strokeColor=none;fillColor=none;align=left;verticalAlign=top;spacingLeft=4;spacingRight=4;overflow=hidden;rotatable=0;points=[[0,0.5],[1,0.5]];portConstraint=eastwest;" parent="GNIsgfz2RBcbvhtRr2Xp-14" vertex="1">
          <mxGeometry y="26" width="140" height="26" as="geometry" />
        </mxCell>
        <mxCell id="GNIsgfz2RBcbvhtRr2Xp-16" value="+ field: type" style="text;strokeColor=none;fillColor=none;align=left;verticalAlign=top;spacingLeft=4;spacingRight=4;overflow=hidden;rotatable=0;points=[[0,0.5],[1,0.5]];portConstraint=eastwest;" parent="GNIsgfz2RBcbvhtRr2Xp-14" vertex="1">
          <mxGeometry y="52" width="140" height="26" as="geometry" />
        </mxCell>
        <mxCell id="GNIsgfz2RBcbvhtRr2Xp-17" value="+ field: type" style="text;strokeColor=none;fillColor=none;align=left;verticalAlign=top;spacingLeft=4;spacingRight=4;overflow=hidden;rotatable=0;points=[[0,0.5],[1,0.5]];portConstraint=eastwest;" parent="GNIsgfz2RBcbvhtRr2Xp-14" vertex="1">
          <mxGeometry y="78" width="140" height="26" as="geometry" />
        </mxCell>
        <mxCell id="GNIsgfz2RBcbvhtRr2Xp-18" value="" style="line;strokeWidth=1;fillColor=none;align=left;verticalAlign=middle;spacingTop=-1;spacingLeft=3;spacingRight=3;rotatable=0;labelPosition=right;points=[];portConstraint=eastwest;" parent="1" vertex="1">
          <mxGeometry x="390" y="420" width="40" height="8" as="geometry" />
        </mxCell>
        <mxCell id="6CCxmFv6uolV06Bg7Xiu-1" value="Projet" style="swimlane;childLayout=stackLayout;horizontal=1;startSize=30;horizontalStack=0;rounded=1;fontSize=14;fontStyle=0;strokeWidth=2;resizeParent=0;resizeLast=1;shadow=0;dashed=0;align=center;" parent="1" vertex="1">
          <mxGeometry x="230" y="680" width="110" height="100" as="geometry" />
        </mxCell>
        <mxCell id="6CCxmFv6uolV06Bg7Xiu-2" value="Code&#xa;Nom&#xa;Budget" style="align=left;strokeColor=none;fillColor=none;spacingLeft=4;fontSize=12;verticalAlign=top;resizable=0;rotatable=0;part=1;fontStyle=0" parent="6CCxmFv6uolV06Bg7Xiu-1" vertex="1">
          <mxGeometry y="30" width="110" height="70" as="geometry" />
        </mxCell>
        <mxCell id="6CCxmFv6uolV06Bg7Xiu-5" value="EmployÃ©" style="swimlane;childLayout=stackLayout;horizontal=1;startSize=30;horizontalStack=0;rounded=1;fontSize=14;fontStyle=0;strokeWidth=2;resizeParent=0;resizeLast=1;shadow=0;dashed=0;align=center;" parent="1" vertex="1">
          <mxGeometry x="530" y="680" width="110" height="100" as="geometry" />
        </mxCell>
        <mxCell id="6CCxmFv6uolV06Bg7Xiu-6" value="Nom&#xa;fonction&#xa;salaire&#xa;" style="align=left;strokeColor=none;fillColor=none;spacingLeft=4;fontSize=12;verticalAlign=top;resizable=0;rotatable=0;part=1;fontStyle=0" parent="6CCxmFv6uolV06Bg7Xiu-5" vertex="1">
          <mxGeometry y="30" width="110" height="70" as="geometry" />
        </mxCell>
        <mxCell id="6CCxmFv6uolV06Bg7Xiu-8" value="&lt;div&gt;Participer&lt;/div&gt;&lt;div style=&quot;font-size: 10px&quot;&gt;&lt;font style=&quot;font-size: 10px&quot;&gt;Taches&lt;/font&gt;&lt;/div&gt;&lt;div style=&quot;font-size: 10px&quot;&gt;&lt;font style=&quot;font-size: 10px&quot;&gt;Nb_heures&lt;/font&gt;&lt;br&gt;&lt;/div&gt;" style="ellipse;whiteSpace=wrap;html=1;align=center;" parent="1" vertex="1">
          <mxGeometry x="384" y="710" width="116" height="50" as="geometry" />
        </mxCell>
        <mxCell id="6CCxmFv6uolV06Bg7Xiu-13" value="" style="endArrow=none;html=1;rounded=0;exitX=1;exitY=0.5;exitDx=0;exitDy=0;entryX=0;entryY=0.5;entryDx=0;entryDy=0;" parent="1" source="6CCxmFv6uolV06Bg7Xiu-2" target="6CCxmFv6uolV06Bg7Xiu-8" edge="1">
          <mxGeometry relative="1" as="geometry">
            <mxPoint x="330" y="1100" as="sourcePoint" />
            <mxPoint x="490" y="1100" as="targetPoint" />
          </mxGeometry>
        </mxCell>
        <mxCell id="6CCxmFv6uolV06Bg7Xiu-18" value="1:n" style="text;html=1;strokeColor=none;fillColor=none;align=center;verticalAlign=middle;whiteSpace=wrap;rounded=0;" parent="1" vertex="1">
          <mxGeometry x="354" y="740" width="30" height="30" as="geometry" />
        </mxCell>
        <mxCell id="6CCxmFv6uolV06Bg7Xiu-19" value="0:n" style="text;html=1;strokeColor=none;fillColor=none;align=center;verticalAlign=middle;whiteSpace=wrap;rounded=0;" parent="1" vertex="1">
          <mxGeometry x="490" y="710" width="30" height="30" as="geometry" />
        </mxCell>
        <mxCell id="6CCxmFv6uolV06Bg7Xiu-20" value="" style="endArrow=none;html=1;rounded=0;exitX=1;exitY=0.5;exitDx=0;exitDy=0;entryX=0;entryY=0.6;entryDx=0;entryDy=0;entryPerimeter=0;" parent="1" source="6CCxmFv6uolV06Bg7Xiu-8" target="6CCxmFv6uolV06Bg7Xiu-6" edge="1">
          <mxGeometry relative="1" as="geometry">
            <mxPoint x="450" y="770" as="sourcePoint" />
            <mxPoint x="450" y="820" as="targetPoint" />
          </mxGeometry>
        </mxCell>
        <mxCell id="6CCxmFv6uolV06Bg7Xiu-21" value="&lt;div&gt;Diriger&lt;/div&gt;&lt;div&gt;&lt;br&gt;&lt;/div&gt;" style="ellipse;whiteSpace=wrap;html=1;align=center;" parent="1" vertex="1">
          <mxGeometry x="670" y="720" width="100" height="40" as="geometry" />
        </mxCell>
        <mxCell id="6CCxmFv6uolV06Bg7Xiu-22" value="0:1" style="text;html=1;strokeColor=none;fillColor=none;align=center;verticalAlign=middle;whiteSpace=wrap;rounded=0;" parent="1" vertex="1">
          <mxGeometry x="650" y="690" width="30" height="30" as="geometry" />
        </mxCell>
        <mxCell id="6CCxmFv6uolV06Bg7Xiu-23" value="1:n" style="text;html=1;strokeColor=none;fillColor=none;align=center;verticalAlign=middle;whiteSpace=wrap;rounded=0;" parent="1" vertex="1">
          <mxGeometry x="650" y="760" width="30" height="30" as="geometry" />
        </mxCell>
        <mxCell id="6CCxmFv6uolV06Bg7Xiu-24" value="" style="endArrow=none;html=1;rounded=0;exitX=0.991;exitY=0.1;exitDx=0;exitDy=0;entryX=0.33;entryY=0;entryDx=0;entryDy=0;entryPerimeter=0;exitPerimeter=0;" parent="1" source="6CCxmFv6uolV06Bg7Xiu-6" target="6CCxmFv6uolV06Bg7Xiu-21" edge="1">
          <mxGeometry relative="1" as="geometry">
            <mxPoint x="650" y="688" as="sourcePoint" />
            <mxPoint x="696" y="710" as="targetPoint" />
          </mxGeometry>
        </mxCell>
        <mxCell id="6CCxmFv6uolV06Bg7Xiu-25" value="" style="endArrow=none;html=1;rounded=0;exitX=0.5;exitY=1;exitDx=0;exitDy=0;entryX=1;entryY=0.75;entryDx=0;entryDy=0;" parent="1" source="6CCxmFv6uolV06Bg7Xiu-21" target="6CCxmFv6uolV06Bg7Xiu-6" edge="1">
          <mxGeometry relative="1" as="geometry">
            <mxPoint x="680" y="770" as="sourcePoint" />
            <mxPoint x="726" y="792" as="targetPoint" />
          </mxGeometry>
        </mxCell>
        <mxCell id="6CCxmFv6uolV06Bg7Xiu-28" value="" style="endArrow=none;html=1;rounded=0;fontSize=10;exitX=0.017;exitY=0.34;exitDx=0;exitDy=0;exitPerimeter=0;" parent="1" source="6CCxmFv6uolV06Bg7Xiu-8" edge="1">
          <mxGeometry relative="1" as="geometry">
            <mxPoint x="400" y="730" as="sourcePoint" />
            <mxPoint x="500" y="730" as="targetPoint" />
          </mxGeometry>
        </mxCell>
        <mxCell id="6CCxmFv6uolV06Bg7Xiu-29" value="" style="endArrow=none;html=1;rounded=0;fontSize=10;exitX=0.017;exitY=0.34;exitDx=0;exitDy=0;exitPerimeter=0;" parent="1" edge="1">
          <mxGeometry relative="1" as="geometry">
            <mxPoint x="670.002" y="740" as="sourcePoint" />
            <mxPoint x="770" y="743" as="targetPoint" />
          </mxGeometry>
        </mxCell>
        <mxCell id="JHDAkBrl2dvtrn6jSmzX-3" value="Classname" style="swimlane;fontStyle=1;align=center;verticalAlign=top;childLayout=stackLayout;horizontal=1;startSize=26;horizontalStack=0;resizeParent=1;resizeParentMax=0;resizeLast=0;collapsible=1;marginBottom=0;" parent="1" vertex="1">
          <mxGeometry x="500" y="770" width="160" height="86" as="geometry" />
        </mxCell>
        <mxCell id="JHDAkBrl2dvtrn6jSmzX-4" value="+ field: type" style="text;strokeColor=none;fillColor=none;align=left;verticalAlign=top;spacingLeft=4;spacingRight=4;overflow=hidden;rotatable=0;points=[[0,0.5],[1,0.5]];portConstraint=eastwest;" parent="JHDAkBrl2dvtrn6jSmzX-3" vertex="1">
          <mxGeometry y="26" width="160" height="26" as="geometry" />
        </mxCell>
        <mxCell id="JHDAkBrl2dvtrn6jSmzX-5" value="" style="line;strokeWidth=1;fillColor=none;align=left;verticalAlign=middle;spacingTop=-1;spacingLeft=3;spacingRight=3;rotatable=0;labelPosition=right;points=[];portConstraint=eastwest;strokeColor=inherit;" parent="JHDAkBrl2dvtrn6jSmzX-3" vertex="1">
          <mxGeometry y="52" width="160" height="8" as="geometry" />
        </mxCell>
        <mxCell id="JHDAkBrl2dvtrn6jSmzX-6" value="+ method(type): type" style="text;strokeColor=none;fillColor=none;align=left;verticalAlign=top;spacingLeft=4;spacingRight=4;overflow=hidden;rotatable=0;points=[[0,0.5],[1,0.5]];portConstraint=eastwest;" parent="JHDAkBrl2dvtrn6jSmzX-3" vertex="1">
          <mxGeometry y="60" width="160" height="26" as="geometry" />
        </mxCell>
        <mxCell id="JHDAkBrl2dvtrn6jSmzX-7" value="Element" style="swimlane;fontStyle=1;align=center;verticalAlign=top;childLayout=stackLayout;horizontal=1;startSize=26;horizontalStack=0;resizeParent=1;resizeParentMax=0;resizeLast=0;collapsible=1;marginBottom=0;" parent="1" vertex="1">
          <mxGeometry x="60" y="890" width="170" height="170" as="geometry" />
        </mxCell>
        <mxCell id="JHDAkBrl2dvtrn6jSmzX-8" value="- x: int&#xa;- y: int&#xa;" style="text;strokeColor=none;fillColor=none;align=left;verticalAlign=top;spacingLeft=4;spacingRight=4;overflow=hidden;rotatable=0;points=[[0,0.5],[1,0.5]];portConstraint=eastwest;" parent="JHDAkBrl2dvtrn6jSmzX-7" vertex="1">
          <mxGeometry y="26" width="170" height="64" as="geometry" />
        </mxCell>
        <mxCell id="JHDAkBrl2dvtrn6jSmzX-9" value="" style="line;strokeWidth=1;fillColor=none;align=left;verticalAlign=middle;spacingTop=-1;spacingLeft=3;spacingRight=3;rotatable=0;labelPosition=right;points=[];portConstraint=eastwest;strokeColor=inherit;" parent="JHDAkBrl2dvtrn6jSmzX-7" vertex="1">
          <mxGeometry y="90" width="170" height="8" as="geometry" />
        </mxCell>
        <mxCell id="JHDAkBrl2dvtrn6jSmzX-10" value="+touche(int , int ): boolean&#xa;+Element(int, int): Element&#xa;+equals(Object ):boolean&#xa;" style="text;strokeColor=none;fillColor=none;align=left;verticalAlign=top;spacingLeft=4;spacingRight=4;overflow=hidden;rotatable=0;points=[[0,0.5],[1,0.5]];portConstraint=eastwest;" parent="JHDAkBrl2dvtrn6jSmzX-7" vertex="1">
          <mxGeometry y="98" width="170" height="72" as="geometry" />
        </mxCell>
        <mxCell id="JHDAkBrl2dvtrn6jSmzX-11" value="n" style="endArrow=open;html=1;endSize=12;startArrow=diamondThin;startSize=14;startFill=0;edgeStyle=orthogonalEdgeStyle;align=left;verticalAlign=bottom;rounded=0;entryX=1;entryY=0.5;entryDx=0;entryDy=0;" parent="1" target="JHDAkBrl2dvtrn6jSmzX-8" edge="1">
          <mxGeometry x="-0.9451" y="20" relative="1" as="geometry">
            <mxPoint x="390" y="960" as="sourcePoint" />
            <mxPoint x="504" y="870" as="targetPoint" />
            <Array as="points">
              <mxPoint x="315" y="960" />
              <mxPoint x="315" y="948" />
            </Array>
            <mxPoint as="offset" />
          </mxGeometry>
        </mxCell>
        <mxCell id="JHDAkBrl2dvtrn6jSmzX-13" value="Bateau" style="swimlane;fontStyle=1;align=center;verticalAlign=top;childLayout=stackLayout;horizontal=1;startSize=26;horizontalStack=0;resizeParent=1;resizeParentMax=0;resizeLast=0;collapsible=1;marginBottom=0;" parent="1" vertex="1">
          <mxGeometry x="400" y="910" width="190" height="160" as="geometry" />
        </mxCell>
        <mxCell id="JHDAkBrl2dvtrn6jSmzX-14" value="+ horizontal: boolean" style="text;strokeColor=none;fillColor=none;align=left;verticalAlign=top;spacingLeft=4;spacingRight=4;overflow=hidden;rotatable=0;points=[[0,0.5],[1,0.5]];portConstraint=eastwest;" parent="JHDAkBrl2dvtrn6jSmzX-13" vertex="1">
          <mxGeometry y="26" width="190" height="26" as="geometry" />
        </mxCell>
        <mxCell id="JHDAkBrl2dvtrn6jSmzX-15" value="" style="line;strokeWidth=1;fillColor=none;align=left;verticalAlign=middle;spacingTop=-1;spacingLeft=3;spacingRight=3;rotatable=0;labelPosition=right;points=[];portConstraint=eastwest;strokeColor=inherit;" parent="JHDAkBrl2dvtrn6jSmzX-13" vertex="1">
          <mxGeometry y="52" width="190" height="8" as="geometry" />
        </mxCell>
        <mxCell id="JHDAkBrl2dvtrn6jSmzX-16" value="+Bateau(): Bateau&#xa;+touche(int, int): boolean&#xa;+hasElement(Element ): boolean&#xa;+isHorizontal():boolean&#xa;+equals(Object ):boolean&#xa;&#xa;" style="text;strokeColor=none;fillColor=none;align=left;verticalAlign=top;spacingLeft=4;spacingRight=4;overflow=hidden;rotatable=0;points=[[0,0.5],[1,0.5]];portConstraint=eastwest;" parent="JHDAkBrl2dvtrn6jSmzX-13" vertex="1">
          <mxGeometry y="60" width="190" height="100" as="geometry" />
        </mxCell>
        <mxCell id="JHDAkBrl2dvtrn6jSmzX-19" value="elements" style="text;strokeColor=none;fillColor=none;align=left;verticalAlign=top;spacingLeft=4;spacingRight=4;overflow=hidden;rotatable=0;points=[[0,0.5],[1,0.5]];portConstraint=eastwest;" parent="1" vertex="1">
          <mxGeometry x="260" y="920" width="100" height="26" as="geometry" />
        </mxCell>
      </root>
    </mxGraphModel>
  </diagram>
</mxfile>
